<svg width="24" height="24" viewBox="0 0 24 24" fill="none" xmlns="http://www.w3.org/2000/svg">
<path fill-rule="evenodd" clip-rule="evenodd" d="M0 0H24V24H0V0ZM6 12.1257C6 8.8229 8.67888 6.144 11.9816 6.144C15.2844 6.144 17.9633 8.8229 18 12.1257C18 14.7679 16.3119 17.0064 13.9266 17.8137C13.633 17.8504 13.5229 17.6669 13.5229 17.5201V15.8688C13.5229 15.3183 13.3395 14.9513 13.1193 14.7679C14.4404 14.6211 15.8349 14.144 15.8349 11.8321C15.8349 11.1715 15.578 10.6211 15.211 10.2174C15.2139 10.2059 15.2179 10.1914 15.2227 10.1741C15.2789 9.97146 15.4419 9.38333 15.1376 8.63941C15.1376 8.63941 14.6239 8.49263 13.4862 9.26327C13.0092 9.15318 12.4954 9.07978 11.9816 9.07978C11.4679 9.07978 10.9541 9.11648 10.4771 9.26327C9.33943 8.49263 8.82568 8.63941 8.82568 8.63941C8.50136 9.43223 8.70786 10.0481 8.75015 10.1743L8.7523 10.1807C8.3486 10.6211 8.12842 11.1348 8.12842 11.7954C8.12842 14.1073 9.52295 14.6211 10.8441 14.7679C10.6973 14.9146 10.5138 15.1715 10.4771 15.5752C10.1468 15.722 9.30276 15.9789 8.7523 15.0614C8.7523 15.0614 8.42203 14.4743 7.83485 14.4376C7.83485 14.4376 7.24773 14.4376 7.79819 14.8046C7.79819 14.8046 8.20184 14.988 8.45869 15.6853C8.45869 15.6853 8.82568 16.8596 10.4771 16.4926V17.5201C10.4771 17.6669 10.367 17.8504 10.0734 17.8137C7.72476 17.0064 6 14.7679 6 12.1257Z" fill="white"/>
</svg>
