<svg width="600" height="600" viewBox="0 0 600 600" fill="none" xmlns="http://www.w3.org/2000/svg">
<path d="M218.124 519.612C249.96 538.8 272.672 530.834 281.366 515.447C298.181 485.69 354.089 424.839 442.687 404.272C560.03 377.032 535.525 304.706 463.389 266.752C391.254 228.798 337.317 176.283 345.48 119.181C353.643 62.0792 272.76 42.3944 236.79 152.239C213.545 223.224 171.89 242.242 145.326 246.813C120.291 251.121 92.9056 256.527 79.5511 278.137C63.3463 304.357 69.001 330.88 136.847 349.071C232.991 374.85 146.767 476.599 218.124 519.612Z" fill="#A855F7"/>
<path d="M135.408 395.195C136.756 394.423 151.962 387.986 227.611 423.253C227.391 423.553 227.297 423.695 227.297 423.695C227.297 423.695 148.652 450.18 133.244 417.552C128.642 407.839 129.961 401.15 135.277 395.27L135.408 395.195Z" fill="#737373"/>
<path d="M389.671 408.54C373.236 422.357 347.461 432.386 322.591 419.05C326.521 416.539 330.581 413.952 334.721 411.277C359.696 395.229 381.696 405.967 389.671 408.54Z" fill="#737373"/>
<path d="M419.111 238.605C435.903 378.43 395.997 403.807 391.555 407.662C390.269 408.778 389.748 408.696 387.803 408.196L387.77 408.214C379.54 406.033 359.697 395.229 334.72 411.274C330.58 413.95 326.52 416.537 322.591 419.048C297.112 435.207 276.537 446.595 261.713 439.986C249.14 433.571 237.803 428.02 227.612 423.253C151.962 387.985 136.756 394.423 135.409 395.194C136.972 394.343 151.313 386.393 170.623 372.414C170.688 372.376 170.754 372.339 170.768 372.287C196.578 353.582 231.143 324.106 255.989 286.187C272.903 260.403 289.449 195.037 321.375 182.211C386.988 157.734 416.387 210.163 419.111 238.605Z" fill="#F5F5F5"/>
<path d="M346.561 236.152C348.597 230.774 348.399 225.713 346.117 224.849C343.836 223.985 340.335 227.645 338.298 233.023C336.262 238.401 336.46 243.461 338.742 244.325C341.023 245.189 344.524 241.53 346.561 236.152Z" fill="#171717"/>
<path d="M388.338 243.014C389.781 237.447 389.037 232.438 386.675 231.825C384.314 231.213 381.229 235.229 379.786 240.796C378.342 246.363 379.086 251.372 381.448 251.984C383.81 252.597 386.894 248.58 388.338 243.014Z" fill="#171717"/>
<path d="M362.908 263.453C362.565 263.452 362.234 263.335 361.967 263.12C361.701 262.905 361.516 262.606 361.443 262.271C361.176 261.061 359.986 257.478 358.1 256.945C356.214 256.413 352.513 258.48 351.016 259.565C350.694 259.798 350.292 259.894 349.899 259.831C349.506 259.768 349.155 259.552 348.921 259.23C348.688 258.907 348.592 258.506 348.655 258.113C348.718 257.72 348.934 257.368 349.256 257.135C349.846 256.708 355.131 252.99 358.914 254.058C362.861 255.172 364.232 260.975 364.374 261.633C364.422 261.852 364.42 262.079 364.369 262.298C364.317 262.516 364.217 262.72 364.076 262.894C363.936 263.069 363.758 263.21 363.555 263.306C363.353 263.403 363.131 263.453 362.907 263.453H362.908Z" fill="#171717"/>
</svg>
