<?xml version="1.0" standalone="no"?>
<!DOCTYPE svg PUBLIC "-//W3C//DTD SVG 20010904//EN"
 "http://www.w3.org/TR/2001/REC-SVG-20010904/DTD/svg10.dtd">
<svg version="1.0" xmlns="http://www.w3.org/2000/svg"
 width="260.000000pt" height="260.000000pt" viewBox="0 0 260.000000 260.000000"
 preserveAspectRatio="xMidYMid meet">
<metadata>
Created by potrace 1.14, written by Peter Selinger 2001-2017
</metadata>
<g transform="translate(0.000000,260.000000) scale(0.100000,-0.100000)"
fill="#000000" stroke="none">
<path d="M0 1300 l0 -1300 1300 0 1300 0 0 1300 0 1300 -1300 0 -1300 0 0
-1300z m2182 1068 c79 -37 142 -98 181 -177 l32 -66 0 -825 0 -825 -27 -57
c-37 -79 -98 -142 -177 -181 l-66 -32 -825 0 -825 0 -66 32 c-79 39 -140 102
-177 181 l-27 57 0 825 0 825 26 56 c47 99 129 172 232 205 34 10 202 13 852
11 l810 -2 57 -27z"/>
<path d="M535 2245 c-5 -2 -23 -6 -38 -9 -16 -4 -48 -25 -72 -47 -79 -73 -76
-34 -73 -910 3 -848 -1 -791 66 -861 68 -71 38 -69 903 -66 848 3 791 -1 861
66 71 68 69 38 66 903 -3 858 2 798 -70 866 -67 65 -42 63 -877 62 -416 0
-760 -2 -766 -4z m433 -830 l222 -119 0 -86 0 -86 -167 -90 c-92 -49 -216
-115 -275 -147 l-108 -57 0 87 0 88 190 100 c105 54 189 103 187 108 -1 4 -85
52 -187 105 l-185 97 -3 89 -3 88 53 -29 c29 -16 153 -83 276 -148z m1022
-760 l0 -75 -305 0 -305 0 0 75 0 75 305 0 305 0 0 -75z"/>
</g>
</svg>
