<?xml version="1.0" standalone="no"?>
<!DOCTYPE svg PUBLIC "-//W3C//DTD SVG 20010904//EN"
 "http://www.w3.org/TR/2001/REC-SVG-20010904/DTD/svg10.dtd">
<svg version="1.0" xmlns="http://www.w3.org/2000/svg"
 width="260.000000pt" height="260.000000pt" viewBox="0 0 260.000000 260.000000"
 preserveAspectRatio="xMidYMid meet">
<metadata>
Created by potrace 1.14, written by Peter Selinger 2001-2017
</metadata>
<g transform="translate(0.000000,260.000000) scale(0.100000,-0.100000)"
fill="#000000" stroke="none">
<path d="M0 1300 l0 -1300 1300 0 1300 0 0 1300 0 1300 -1300 0 -1300 0 0
-1300z m1728 639 c53 -18 67 -105 25 -151 -21 -23 -109 -24 -141 -2 -18 12
-22 25 -22 68 0 38 5 57 18 68 30 27 74 33 120 17z m-660 -244 c71 -21 117
-69 131 -135 6 -28 11 -107 11 -175 l0 -125 30 0 c30 0 30 0 30 -56 l0 -56
-74 4 c-80 4 -109 19 -128 68 -10 24 -10 24 -18 5 -11 -27 -49 -61 -83 -74
-39 -15 -121 -14 -160 3 -88 37 -119 156 -62 242 28 43 97 67 209 72 l98 5 -5
41 c-8 55 -35 76 -99 76 -53 0 -79 -10 -116 -43 l-22 -21 -40 39 c-31 31 -37
42 -29 56 12 23 90 69 132 79 54 13 141 11 195 -5z m692 -317 c0 -355 -2 -367
-63 -412 -25 -18 -46 -21 -168 -24 l-139 -4 0 61 0 61 105 0 105 0 0 255 0
254 -102 3 -103 3 -3 63 -3 62 186 0 185 0 0 -322z m170 -568 l0 -50 -635 0
-635 0 0 50 0 50 635 0 635 0 0 -50z"/>
<path d="M892 1364 c-16 -11 -22 -25 -22 -54 0 -46 26 -70 78 -70 66 0 101 34
102 98 l0 42 -68 0 c-45 0 -75 -5 -90 -16z"/>
</g>
</svg>
