<?xml version="1.0" standalone="no"?>
<!DOCTYPE svg PUBLIC "-//W3C//DTD SVG 20010904//EN"
 "http://www.w3.org/TR/2001/REC-SVG-20010904/DTD/svg10.dtd">
<svg version="1.0" xmlns="http://www.w3.org/2000/svg"
 width="260.000000pt" height="260.000000pt" viewBox="0 0 260.000000 260.000000"
 preserveAspectRatio="xMidYMid meet">
<metadata>
Created by potrace 1.14, written by Peter Selinger 2001-2017
</metadata>
<g transform="translate(0.000000,260.000000) scale(0.100000,-0.100000)"
fill="#000000" stroke="none">
<path d="M0 1300 l0 -1300 1300 0 1300 0 0 1300 0 1300 -1300 0 -1300 0 0
-1300z m2282 1168 c76 -35 138 -95 179 -170 l34 -63 0 -930 0 -930 -27 -57
c-35 -76 -95 -138 -170 -179 l-63 -34 -930 0 -930 0 -57 27 c-76 35 -138 95
-179 170 l-34 63 0 930 0 930 26 56 c45 96 125 168 227 205 30 11 217 13 952
11 l915 -2 57 -27z"/>
<path d="M408 2338 c-21 -5 -58 -28 -82 -50 -79 -69 -76 -27 -76 -985 0 -588
3 -858 11 -888 7 -27 28 -63 51 -90 69 -78 27 -75 985 -75 588 0 858 3 888 11
27 7 63 28 90 51 78 69 75 27 75 985 0 588 -3 858 -11 888 -7 27 -28 63 -51
90 -69 78 -26 75 -992 74 -525 -1 -865 -5 -888 -11z m449 -865 l313 -168 -2
-108 -3 -109 -205 -109 c-113 -61 -256 -137 -317 -170 l-113 -60 0 105 0 105
220 116 c121 64 220 119 220 123 0 4 -99 59 -220 122 l-220 115 0 103 c0 56 3
102 6 102 4 0 148 -75 321 -167z m1253 -928 l0 -95 -360 0 -360 0 0 95 0 95
360 0 360 0 0 -95z"/>
</g>
</svg>
